<?xml version="1.0" standalone="no"?>
<!DOCTYPE svg PUBLIC "-//W3C//DTD SVG 20010904//EN"
 "http://www.w3.org/TR/2001/REC-SVG-20010904/DTD/svg10.dtd">
<svg version="1.0" xmlns="http://www.w3.org/2000/svg"
 width="205.000000pt" height="205.000000pt" viewBox="0 0 205.000000 205.000000"
 preserveAspectRatio="xMidYMid meet">
<metadata>
Created by potrace 1.14, written by Peter Selinger 2001-2017
</metadata>
<g transform="translate(0.000000,205.000000) scale(0.100000,-0.100000)"
fill="#000000" stroke="none">
<path d="M1250 2029 c-47 -10 -96 -21 -109 -24 -41 -10 -167 -71 -223 -109
-54 -36 -123 -98 -168 -152 -14 -16 -44 -35 -66 -42 -86 -25 -173 -155 -209
-312 -16 -71 -14 -230 5 -290 17 -58 16 -60 -51 -60 -98 0 -160 -47 -171 -130
-2 -15 -32 -53 -74 -95 -102 -101 -143 -205 -131 -330 6 -52 9 -74 21 -120 10
-43 45 -131 74 -188 39 -78 100 -135 165 -154 45 -14 575 -21 619 -8 111 32
178 112 238 285 44 129 55 259 29 335 -33 92 -94 176 -161 219 -18 12 -28 27
-28 42 0 18 8 27 28 35 88 33 199 95 307 173 88 64 108 81 221 189 71 68 94
97 104 130 9 33 21 48 53 67 63 38 146 126 210 222 51 75 59 93 59 133 0 85
-55 138 -166 159 -6 2 -36 8 -66 14 -30 6 -68 14 -85 18 -16 3 -100 7 -185 9
-124 2 -172 -1 -240 -16z"/>
</g>
</svg>
